HIERARCHY
ROOT Hips
{
	OFFSET 0.000000 0.000000 0.000000
	CHANNELS 6 Xposition Yposition Zposition Zrotation Yrotation Xrotation 
	JOINT LeftUpLeg_virtual
	{
		OFFSET 0.000000 0.000000 0.000000
		CHANNELS 3 Zrotation Yrotation Xrotation
		JOINT LeftUpLeg
		{
			OFFSET 8.479694 -4.795517 -0.379053
			CHANNELS 3 Zrotation Yrotation Xrotation
			JOINT LeftLeg
			{
				OFFSET 0.485052 -32.551468 0.112863
				CHANNELS 3 Zrotation Yrotation Xrotation
				JOINT LeftFoot
				{
					OFFSET 0.438033 -32.635670 -3.012641
					CHANNELS 3 Zrotation Yrotation Xrotation
					JOINT LeftToeBase
					{
						OFFSET 0.970169 -13.225353 11.864223
						CHANNELS 3 Zrotation Yrotation Xrotation
						End Site
						{
							OFFSET 0.000000 0.000000 0.000000
						}
					}
				}
			}
		}
	}
	JOINT RightUpLeg_virtual
	{
		OFFSET 0.000000 0.000000 0.000000
		CHANNELS 3 Zrotation Yrotation Xrotation
		JOINT RightUpLeg
		{
			OFFSET -8.479694 -4.795517 -0.379053
			CHANNELS 3 Zrotation Yrotation Xrotation
			JOINT RightLeg
			{
				OFFSET -0.484100 -32.551483 0.112903
				CHANNELS 3 Zrotation Yrotation Xrotation
				JOINT RightFoot
				{
					OFFSET -0.438985 -32.635651 -3.012681
					CHANNELS 3 Zrotation Yrotation Xrotation
					JOINT RightToeBase
					{
						OFFSET -0.970169 -13.225354 11.864223
						CHANNELS 3 Zrotation Yrotation Xrotation
						End Site
						{
							OFFSET 0.000000 0.000000 0.000000
						}
					}
				}
			}
		}
	}
	JOINT Spine_virtual
	{
		OFFSET 0.000000 0.000000 0.000000
		CHANNELS 3 Zrotation Yrotation Xrotation
		JOINT Spine
		{
			OFFSET 0.000000 7.722015 1.166203
			CHANNELS 3 Zrotation Yrotation Xrotation
			JOINT Spine1
			{
				OFFSET 0.000000 12.024086 0.248766
				CHANNELS 3 Zrotation Yrotation Xrotation
				JOINT Spine2
				{
					OFFSET -0.000000 11.503036 -0.491240
					CHANNELS 3 Zrotation Yrotation Xrotation
					JOINT Neck_virtual
					{
						OFFSET 0.000000 0.000000 0.000000
						CHANNELS 3 Zrotation Yrotation Xrotation
						JOINT Neck
						{
							OFFSET 0.000000 18.430687 -3.123054
							CHANNELS 3 Zrotation Yrotation Xrotation
							JOINT Head
							{
								OFFSET -0.000000 9.051071 1.034021
								CHANNELS 3 Zrotation Yrotation Xrotation
								End Site
								{
									OFFSET 0.000000 0.000000 0.000000
								}
							}
						}
					}
					JOINT LeftShoulder_virtual
					{
						OFFSET 0.000000 0.000000 0.000000
						CHANNELS 3 Zrotation Yrotation Xrotation
						JOINT LeftShoulder
						{
							OFFSET 6.197824 13.665230 -4.064723
							CHANNELS 3 Zrotation Yrotation Xrotation
							JOINT LeftArm
							{
								OFFSET 7.778132 -0.187073 -1.709282
								CHANNELS 3 Zrotation Yrotation Xrotation
								JOINT LeftForeArm
								{
									OFFSET 21.954697 0.000000 -2.041093
									CHANNELS 3 Zrotation Yrotation Xrotation
									JOINT LeftHand
									{
										OFFSET 22.992908 0.000000 -0.870901
										CHANNELS 3 Zrotation Yrotation Xrotation
										End Site
										{
											OFFSET 0.000000 0.000000 0.000000
										}
									}
								}
							}
						}
					}
					JOINT RightShoulder_virtual
					{
						OFFSET 0.000000 0.000000 0.000000
						CHANNELS 3 Zrotation Yrotation Xrotation
						JOINT RightShoulder
						{
							OFFSET -6.197824 13.665230 -4.064723
							CHANNELS 3 Zrotation Yrotation Xrotation
							JOINT RightArm
							{
								OFFSET -7.778132 -0.187073 -1.709282
								CHANNELS 3 Zrotation Yrotation Xrotation
								JOINT RightForeArm
								{
									OFFSET -21.954697 0.000000 -2.041093
									CHANNELS 3 Zrotation Yrotation Xrotation
									JOINT RightHand
									{
										OFFSET -22.992908 0.000000 -0.870901
										CHANNELS 3 Zrotation Yrotation Xrotation
										End Site
										{
											OFFSET 0.000000 0.000000 0.000000
										}
									}
								}
							}
						}
					}
				}
			}
		}
	}
}
MOTION
Frames: 6
Frame Time: 0.033333
11.987121 81.466446 15.708041 -179.578965 13.352903 -179.578555 -3.675319 0.434824 11.739821 7.081189 3.594294 -30.394513 8.230881 4.352123 40.947841 -6.272100 -6.819648 -5.878573 0.000000 0.000000 0.000000 0.472056 0.537457 11.426620 1.390470 2.598130 -23.833269 -1.218448 5.691520 28.503006 3.153346 4.059750 -0.611637 0.000000 0.000000 0.000000 4.121036 1.143410 3.034085 1.120229 0.577948 0.851408 1.200723 -2.828267 7.550424 -0.094584 -0.138299 0.105791 1.034319 -1.646882 8.256930 1.966531 -4.245211 -13.357100 0.000000 0.000000 0.000000 2.241192 -0.992526 5.131160 -6.379182 -6.511461 4.031356 -54.911039 -12.174809 19.494668 -2.906194 -33.933309 6.918784 0.000000 0.000000 0.000000 -1.591274 0.562711 4.700971 23.804910 0.541861 4.056948 40.478952 11.779822 9.636152 -0.285174 42.430040 -4.759136 0.000000 0.000000 0.000000 
11.158111 81.522102 15.726347 -179.523695 12.861853 -179.527629 -3.719496 0.508840 12.329269 6.324670 3.392730 -30.537161 8.439947 4.932668 40.489662 -5.746285 -6.313274 -7.229234 0.000000 0.000000 0.000000 0.518364 0.382958 11.930828 0.705223 2.758596 -24.728932 -1.239586 6.020784 28.695237 3.272144 4.073640 0.019836 0.000000 0.000000 0.000000 4.261123 1.183756 3.695726 1.387524 0.729367 0.901268 1.218010 -2.964332 7.650140 -0.111252 -0.296644 0.134290 1.018662 -1.681753 8.368143 1.975135 -3.854389 -14.312351 0.000000 0.000000 0.000000 2.293214 -1.060196 5.318727 -6.416879 -6.913739 4.129713 -55.151414 -12.145462 19.648769 -2.862750 -34.117194 7.315602 0.000000 0.000000 0.000000 -1.652039 0.341172 4.724707 24.587356 1.177979 4.391467 40.837332 13.070303 9.267307 -0.844982 40.835765 -5.155282 0.000000 0.000000 0.000000 
10.249464 81.594765 15.819830 -179.500390 12.246627 -179.569116 -3.656211 0.238469 12.785145 5.572616 3.277630 -30.932790 8.515742 5.183991 39.965933 -5.570810 -5.996167 -7.253044 0.000000 0.000000 0.000000 0.590920 0.375894 12.576045 -0.061217 2.948175 -25.696685 -1.310022 6.184139 28.862231 3.392336 4.038051 0.815302 0.000000 0.000000 0.000000 4.326772 0.956654 4.613021 1.642937 0.717900 0.990563 1.207065 -3.003095 7.779633 -0.086406 -0.348174 0.116426 0.904204 -1.782227 8.443836 2.029288 -3.432092 -15.445612 0.000000 0.000000 0.000000 2.207934 -1.198934 5.480160 -6.423998 -7.352866 4.346756 -55.060914 -12.329374 19.834530 -2.730935 -34.118287 7.758517 0.000000 0.000000 0.000000 -1.724829 0.308164 4.843958 25.026197 1.868152 4.695568 41.491398 14.434953 8.982828 -0.997440 39.318909 -5.205444 0.000000 0.000000 0.000000 
9.334096 81.667664 16.055586 -179.486225 12.032014 -179.595043 -3.616186 0.151290 13.370070 4.699796 3.636028 -31.338469 8.592193 5.413019 39.300956 -5.478918 -5.659615 -7.210788 0.000000 0.000000 0.000000 0.706269 0.649091 13.351910 -0.870988 3.080855 -26.881067 -1.424319 6.289648 28.946991 3.532627 4.047125 1.777625 0.000000 0.000000 0.000000 4.317501 1.201817 5.814772 1.852282 0.724440 1.058934 1.129699 -3.042251 7.884630 -0.102128 -0.403796 0.085476 0.981113 -1.695837 8.510639 2.145113 -2.916216 -16.660694 0.000000 0.000000 0.000000 2.208816 -1.155813 5.678612 -6.288933 -8.027196 4.520712 -54.702329 -13.093778 19.901805 -2.658649 -33.861698 8.316544 0.000000 0.000000 0.000000 -1.790639 0.265460 4.949219 25.471596 2.472274 4.992343 42.354024 15.883151 8.923121 -1.423345 37.956007 -5.535394 0.000000 0.000000 0.000000 
8.416822 81.705299 16.416552 -179.445803 12.534678 -179.624700 -3.584059 0.517634 14.000900 3.672790 4.289531 -31.922067 8.647153 5.594357 38.463995 -5.516084 -5.386966 -7.236055 0.000000 0.000000 0.000000 0.829367 1.087888 14.213384 -1.659145 3.073943 -28.357079 -1.591479 6.328781 28.981637 3.682894 4.163525 2.891563 0.000000 0.000000 0.000000 4.148799 1.295237 7.279307 2.016105 0.860344 1.189572 1.095812 -2.900141 8.014769 -0.097944 -0.258735 0.060142 0.964674 -1.652233 8.597176 2.176861 -2.440989 -17.948673 0.000000 0.000000 0.000000 2.206095 -0.995586 5.755540 -5.997627 -8.541415 4.693981 -54.236504 -14.418671 19.656931 -2.597193 -33.465598 8.936018 0.000000 0.000000 0.000000 -1.787181 0.487927 5.183511 25.581302 3.295423 5.207363 43.266383 17.368959 8.932211 -1.583667 36.822202 -5.678536 0.000000 0.000000 0.000000 
7.476922 81.681641 16.863951 -179.376491 12.838363 -179.626257 -3.553271 0.880804 14.596043 2.602076 4.904063 -32.711053 8.738015 5.610772 37.615102 -5.687051 -5.173960 -7.357601 0.000000 0.000000 0.000000 0.891587 1.193802 15.115864 -2.277204 2.604313 -30.032294 -1.773248 6.166784 28.951287 3.814355 4.429271 4.017893 0.000000 0.000000 0.000000 4.000663 1.127736 8.802400 2.159672 1.139494 1.359245 1.031668 -2.714559 8.142851 -0.112580 -0.111346 0.079333 0.931665 -1.706746 8.648814 2.194618 -2.010911 -19.299704 0.000000 0.000000 0.000000 2.134383 -0.732173 5.911668 -5.767912 -9.273216 4.995130 -53.494246 -16.660199 19.243199 -2.287586 -32.971717 9.364495 0.000000 0.000000 0.000000 -1.827825 0.642787 5.374498 25.502615 4.076740 5.489099 43.967383 18.663611 9.013726 -1.857565 35.939083 -5.967313 0.000000 0.000000 0.000000 
